<?xml version="1.0" encoding="UTF-8" standalone="no"?>
<svg width="108px" height="29px" viewBox="0 0 108 29" version="1.1" xmlns="http://www.w3.org/2000/svg" xmlns:xlink="http://www.w3.org/1999/xlink">
    <!-- Generator: Sketch 39.1 (31720) - http://www.bohemiancoding.com/sketch -->
    <title>AVA_logo_100_cmyk</title>
    <desc>Created with Sketch.</desc>
    <defs>
        <polygon id="path-1" points="5.4008 0.654 0.7938 0.654 0.7938 24.3618 5.4008 24.3618 5.4008 0.654"></polygon>
        <polygon id="path-3" points="0.9441 24 18.61 24 18.61 0.2642 0.9441 0.2642 0.9441 24"></polygon>
    </defs>
    <g id="Page-1" stroke="none" stroke-width="1" fill="none" fill-rule="evenodd">
        <g id="AVA_logo_100_cmyk" transform="translate(0.000000, -1.000000)">
            <g id="Group-3" transform="translate(60.000000, 0.346200)">
                <mask id="mask-2" fill="white">
                    <use xlink:href="#path-1"></use>
                </mask>
                <g id="Clip-2"></g>
                <path d="M1.5078,0.6538 C1.1148,0.6538 0.7938,0.9798 0.7938,1.3808 L0.7938,23.6348 C0.7938,24.0408 1.1148,24.3618 1.5078,24.3618 L4.6898,24.3618 C5.0768,24.3618 5.4008,24.0428 5.4008,23.6398 L5.3988,1.3828 C5.3988,0.9828 5.0768,0.6538 4.6858,0.6538 L1.5078,0.6538" id="Fill-1" fill="#fff" mask="url(#mask-2)"></path>
            </g>
            <path d="M17.6304,12.9644 C17.6244,12.7084 17.6114,12.2704 17.5944,11.9964 C17.5944,8.6394 14.9694,5.8434 11.6744,5.6764 C11.5264,5.6714 9.7514,5.6144 8.8624,5.6104 L8.8534,5.6104 C7.9574,5.6144 6.1404,5.6714 5.9954,5.6764 C2.7064,5.8434 0.0694,8.6394 0.0694,11.9964 C0.0534,12.2704 0.0394,12.7084 0.0304,12.9644 C0.0304,13.0324 0.0004,14.7424 0.0004,15.1614 L0.0004,15.1634 C0.0004,15.5834 0.0304,17.2944 0.0304,17.3634 C0.0394,17.6174 0.0534,18.0554 0.0694,18.3324 C0.0694,21.6864 2.7064,24.4834 5.9954,24.6484 C6.1404,24.6574 7.9574,24.7054 8.8534,24.7084 L10.0404,24.7084 C10.4214,24.6904 10.7274,24.3794 10.7364,23.9924 L10.7364,20.8404 L10.7364,20.8374 L10.7364,20.8334 C10.7324,20.4404 10.4214,20.1204 10.0334,20.1064 L8.8384,20.1064 C8.1594,20.1064 6.9434,20.0974 6.3594,20.0474 C5.4104,19.9924 4.6594,19.1874 4.6594,18.2214 C4.6154,17.2084 4.6054,16.3194 4.6054,15.1634 C4.6054,14.0064 4.6154,13.1024 4.6594,12.0914 C4.6594,11.1254 5.4104,10.3184 6.3594,10.2654 C6.9434,10.2144 8.1594,10.2054 8.8384,10.2054 C9.5094,10.2054 10.7254,10.2144 11.3114,10.2654 C12.2544,10.3184 13.0144,11.1254 13.0144,12.0914 C13.0524,13.1024 13.0644,14.0064 13.0644,15.1634 C13.0644,15.4434 13.0644,21.8154 13.0634,23.9964 C13.0694,24.3874 13.3784,24.6974 13.7644,24.7144 L16.9504,24.7144 C17.3424,24.6974 17.6554,24.3794 17.6554,23.9814 L17.6554,23.9794 C17.6604,21.7544 17.6644,15.3094 17.6644,15.1634 L17.6644,15.1614 C17.6644,14.7424 17.6334,13.0324 17.6304,12.9644" id="Fill-4" fill="#fff"></path>
            <path d="M57.0923,12.9644 C57.0893,12.7084 57.0743,12.2704 57.0573,11.9964 C57.0573,8.6394 54.4303,5.8434 51.1373,5.6764 C50.9883,5.6714 49.2113,5.6144 48.3213,5.6104 L48.3143,5.6104 C47.4173,5.6144 45.6003,5.6714 45.4563,5.6764 C42.1683,5.8434 39.5293,8.6394 39.5293,11.9964 C39.5123,12.2704 39.4993,12.7084 39.4933,12.9644 C39.4903,13.0324 39.4643,14.7424 39.4643,15.1614 L39.4643,15.1634 C39.4643,15.5834 39.4903,17.2944 39.4933,17.3634 C39.4993,17.6174 39.5123,18.0554 39.5293,18.3324 C39.5293,21.6864 42.1683,24.4834 45.4563,24.6484 C45.6003,24.6574 47.4173,24.7054 48.3143,24.7084 L49.4993,24.7084 C49.8843,24.6904 50.1883,24.3794 50.1963,23.9924 L50.1963,20.8404 L50.1963,20.8374 L50.1963,20.8334 C50.1963,20.4404 49.8843,20.1204 49.4943,20.1064 L48.2993,20.1064 C47.6213,20.1064 46.4043,20.0974 45.8213,20.0474 C44.8703,19.9924 44.1193,19.1874 44.1193,18.2214 C44.0753,17.2084 44.0643,16.3194 44.0643,15.1634 C44.0643,14.0064 44.0753,13.1024 44.1193,12.0914 C44.1193,11.1254 44.8703,10.3184 45.8213,10.2654 C46.4043,10.2144 47.6213,10.2054 48.2993,10.2054 C48.9703,10.2054 50.1883,10.2144 50.7733,10.2654 C51.7203,10.3184 52.4753,11.1254 52.4753,12.0914 C52.5133,13.1024 52.5303,14.0064 52.5303,15.1634 C52.5303,15.4434 52.5303,21.8154 52.5263,23.9964 C52.5313,24.3874 52.8413,24.6974 53.2283,24.7144 L56.4133,24.7144 C56.8053,24.6974 57.1163,24.3794 57.1163,23.9814 L57.1163,23.9794 L57.1193,23.9794 C57.1203,21.7544 57.1283,15.3094 57.1283,15.1634 L57.1283,15.1614 C57.1283,14.7424 57.0963,13.0324 57.0923,12.9644" id="Fill-6" fill="#fff"></path>
            <path d="M69.0664,15.1597 L69.0664,15.1597 C69.0664,15.5777 69.1004,17.2877 69.1004,17.3587 C69.1054,17.6097 69.1194,18.0537 69.1344,18.3267 C69.1344,21.6827 71.7634,24.4787 75.0594,24.6427 C75.2044,24.6507 76.9824,24.7057 77.8714,24.7087 L77.8814,24.7087 C78.7754,24.7057 80.5914,24.6507 80.7374,24.6427 C84.0274,24.4787 86.6624,21.6827 86.6624,18.3267 C86.6804,18.0537 86.6974,17.6097 86.6994,17.3587 C86.7024,17.2877 86.7324,15.5777 86.7324,15.1597 C86.7324,14.7367 86.7024,13.0307 86.6994,12.9627 C86.6974,12.7057 86.6804,12.2647 86.6624,11.9897 C86.6624,8.6377 84.0274,5.8387 80.7374,5.6747 C80.5914,5.6647 78.7754,5.6107 77.8814,5.6067 L77.8714,5.6067 C76.9824,5.6107 75.2044,5.6647 75.0594,5.6747 C71.7634,5.8387 69.1344,8.6377 69.1344,11.9897 C69.1194,12.2647 69.1054,12.7057 69.1004,12.9627 C69.1004,13.0307 69.0664,14.7367 69.0664,15.1597 M75.4194,10.2647 C76.0034,10.2117 77.2224,10.2047 77.8954,10.2047 C78.5734,10.2047 79.7904,10.2117 80.3734,10.2647 C81.3224,10.3157 82.0744,11.1227 82.0744,12.0917 C82.1154,13.1007 82.1294,14.0007 82.1294,15.1597 C82.1294,16.3157 82.1154,17.2057 82.0744,18.2197 C82.0744,19.1817 81.3224,19.9927 80.3734,20.0457 C79.7904,20.0947 78.5734,20.1017 77.8954,20.1017 C77.2224,20.1017 76.0034,20.0947 75.4194,20.0457 C74.4744,19.9927 73.7204,19.1817 73.7204,18.2197 C73.6764,17.2057 73.6664,16.3157 73.6664,15.1597 C73.6664,14.0007 73.6764,13.1007 73.7204,12.0917 C73.7204,11.1227 74.4744,10.3157 75.4194,10.2647" id="Fill-8" fill="#fff"></path>
            <g id="Group-12" transform="translate(89.000000, 5.346200)">
                <mask id="mask-4" fill="white">
                    <use xlink:href="#path-3"></use>
                </mask>
                <g id="Clip-11"></g>
                <path d="M18.5781,7.6182 C18.5721,7.3622 18.5591,6.9242 18.5421,6.6502 C18.5421,3.2962 15.9161,0.4972 12.6201,0.3302 C12.4711,0.3252 10.6951,0.2682 9.8071,0.2642 L9.7951,0.2642 C8.9011,0.2682 7.0831,0.3252 6.9391,0.3302 C3.6501,0.4972 1.0111,3.2962 1.0111,6.6502 C0.9961,6.9242 0.9841,7.3622 0.9781,7.6182 C0.9741,7.6862 0.9441,9.3962 0.9441,9.8152 L0.9441,9.8172 C0.9441,10.2372 0.9741,11.9482 0.9781,12.0172 C0.9841,12.2712 0.9961,12.7122 1.0111,12.9862 C1.0111,16.3402 3.6501,19.1372 6.9391,19.3022 C7.0831,19.3112 8.9011,19.3592 9.7951,19.3622 L10.9831,19.3622 C11.3651,19.3442 11.6721,19.0332 11.6801,18.6462 L11.6831,15.4942 L11.6831,15.4912 L11.6831,15.4872 C11.6801,15.0942 11.3671,14.7742 10.9781,14.7602 L9.7821,14.7602 C9.1061,14.7602 7.8881,14.7532 7.3051,14.7012 C6.3541,14.6492 5.6031,13.8412 5.6031,12.8772 C5.5591,11.8622 5.5481,10.9732 5.5481,9.8172 C5.5481,8.6622 5.5591,7.7562 5.6031,6.7452 C5.6031,5.7792 6.3541,4.9722 7.3051,4.9192 C7.8881,4.8682 9.1061,4.8592 9.7821,4.8592 C10.4541,4.8592 11.6701,4.8682 12.2571,4.9192 C13.2021,4.9722 13.9581,5.7792 13.9581,6.7452 C13.9971,7.7562 14.0101,8.6622 14.0101,9.8172 C14.0101,10.0972 14.0101,21.0982 14.0071,23.2852 C14.0141,23.6692 14.3241,23.9822 14.7111,24.0002 L17.8971,24.0002 C18.2891,23.9822 18.6001,23.6642 18.6001,23.2682 L18.6001,23.2652 L18.6021,23.2652 C18.6051,21.0392 18.6101,9.9632 18.6101,9.8172 L18.6101,9.8152 C18.6101,9.3962 18.5781,7.6862 18.5781,7.6182" id="Fill-10" fill="#fff" mask="url(#mask-4)"></path>
            </g>
            <path d="M37.3169,5.8306 L33.9719,5.8306 C33.5129,5.8306 33.1619,5.9576 33.0329,6.3116 L28.5859,18.2576 L24.1329,6.3116 C24.0009,5.9576 23.6499,5.8306 23.1919,5.8306 L19.8439,5.8306 C19.5669,5.8306 19.1069,6.1376 19.3719,6.7866 L26.4919,24.2606 C26.6079,24.5446 26.8769,24.7146 27.1559,24.7156 L30.0059,24.7156 C30.2899,24.7146 30.5579,24.5446 30.6709,24.2606 L37.7909,6.7866 C38.0589,6.1376 37.5989,5.8306 37.3169,5.8306" id="Fill-13" fill="#fff"></path>
        </g>
    </g>
</svg>